<?xml version="1.0" encoding="UTF-8" standalone="no"?>
<svg width="50px" height="43px" viewBox="0 0 50 43" version="1.1" xmlns="http://www.w3.org/2000/svg" xmlns:xlink="http://www.w3.org/1999/xlink">
    <!-- Generator: Sketch 42 (36781) - http://www.bohemiancoding.com/sketch -->
    <title>Group</title>
    <desc>Created with Sketch.</desc>
    <defs></defs>
    <g id="Page-1" stroke="none" stroke-width="1" fill="none" fill-rule="evenodd">
        <g id="Web" transform="translate(-360.000000, -4454.000000)" fill="#7ED321">
            <g id="back" transform="translate(360.500000, 4475.500000) scale(-1, 1) translate(-360.500000, -4475.500000) translate(311.000000, 4454.000000)">
                <g id="Group">
                    <path d="M49.5796076,22.3405037 L0.416209393,22.3405037 C0.188235404,22.3405037 0,21.969671 0,21.5123108 C0,21.0611312 0.188235404,20.6902986 0.416209393,20.6902986 L49.5796076,20.6902986 C49.8128103,20.6902986 50,21.0611312 50,21.5123108 C50,21.969671 49.8128103,22.3405037 49.5796076,22.3405037 Z" id="Fill-1"></path>
                    <path d="M21.4705366,42.9979398 C21.2605659,42.9979398 21.0526537,42.9175928 20.8838537,42.7568986 L0.24084878,22.0994625 C0.0885170732,21.9387683 0,21.7286299 0,21.5123108 C0,21.2939316 0.0885170732,21.0858533 0.24084878,20.9313398 L20.8900293,0.273903593 C21.2132195,-0.0474846626 21.7360878,-0.0474846626 22.0489854,0.273903593 C22.3701171,0.595291849 22.3701171,1.11857786 22.0489854,1.43996611 L1.9864878,21.5123108 L22.0489854,41.5908361 C22.3701171,41.9122244 22.3701171,42.4355104 22.0489854,42.7568986 C21.8884195,42.9175928 21.6784488,42.9979398 21.4705366,42.9979398 Z" id="Fill-3"></path>
                </g>
            </g>
        </g>
    </g>
</svg>