<?xml version="1.0" encoding="UTF-8" standalone="no"?>
<svg width="28px" height="28px" viewBox="0 0 28 28" version="1.1" xmlns="http://www.w3.org/2000/svg" xmlns:xlink="http://www.w3.org/1999/xlink">
    <!-- Generator: Sketch 42 (36781) - http://www.bohemiancoding.com/sketch -->
    <title>dribbble_icon</title>
    <desc>Created with Sketch.</desc>
    <defs></defs>
    <g id="Page-1" stroke="none" stroke-width="1" fill="none" fill-rule="evenodd">
        <g id="Mobile-Portrait" transform="translate(-68.000000, -777.000000)" fill="#FFFFFF">
            <g id="Group" transform="translate(68.000000, 776.000000)">
                <path d="M27.2074073,11.9384868 C27.0280072,11.0576753 26.7564826,10.1913562 26.4057634,9.36368328 C26.0631253,8.55211293 25.6348276,7.76952724 25.1386488,7.03846983 C24.6473186,6.31385345 24.0832587,5.63110379 23.4626311,5.01276448 C22.8403873,4.39281491 22.1567273,3.83083466 21.4278131,3.34131604 C20.6940503,2.84535638 19.9085686,2.42185836 19.0939949,2.07726302 C18.2632591,1.72944716 17.393734,1.45731345 16.5112792,1.280185 C15.6061973,1.09500526 14.6752559,1 13.7443146,1 C12.811757,1 11.8808157,1.09500526 10.9757338,1.280185 C10.093279,1.45731345 9.22375393,1.72944716 8.39301808,2.07726302 C7.5784444,2.42185836 6.79296264,2.84535638 6.05758362,3.34131604 C5.3302857,3.83083466 4.64662564,4.39281491 4.02438186,5.01276448 C3.40213808,5.63110379 2.83969435,6.31385345 2.3483642,7.03846983 C1.85056917,7.76952724 1.42388772,8.55211293 1.07963337,9.36368328 C0.728914145,10.1913562 0.459005803,11.0576753 0.27798943,11.9384868 C0.0937406217,12.8370111 0,13.7661303 0,14.6936393 C0,15.6227585 0.0937406217,16.5518778 0.27798943,17.4536226 C0.459005803,18.3312135 0.728914145,19.1991429 1.07963337,20.0252056 C1.42388772,20.836776 1.85056917,21.6209719 2.3483642,22.3536396 C2.83969435,23.078256 3.40213808,23.7577851 4.02438186,24.3777347 C4.64662564,24.9976842 5.3302857,25.5580542 6.05758362,26.0475729 C6.79296264,26.5435325 7.5784444,26.9686408 8.39301808,27.3116259 C9.22375393,27.661052 10.093279,27.9283549 10.9757338,28.1087039 C11.8808157,28.2954939 12.811757,28.3888889 13.7443146,28.3888889 C14.6752559,28.3888889 15.6061973,28.2954939 16.5112792,28.1087039 C17.393734,27.9283549 18.2632591,27.661052 19.0939949,27.3116259 C19.9085686,26.9686408 20.6940503,26.5435325 21.4278131,26.0475729 C22.1567273,25.5580542 22.8403873,24.9976842 23.4626311,24.3777347 C24.0832587,23.7577851 24.6473186,23.078256 25.1386488,22.3536396 C25.6348276,21.6209719 26.0631253,20.836776 26.4057634,20.0252056 C26.7564826,19.1991429 27.0280072,18.3312135 27.2074073,17.4536226 C27.3932724,16.5518778 27.487013,15.6227585 27.487013,14.6936393 C27.487013,13.7661303 27.3932724,12.8370111 27.2074073,11.9384868 L27.2074073,11.9384868 Z M25.4780545,14.5777007 C25.3083516,14.5406647 21.3356887,13.6888379 17.3032258,14.1944591 C17.2191825,13.9947871 17.1351392,13.7935047 17.0494796,13.5922224 C16.8038145,13.0189703 16.5419873,12.4521593 16.2688465,11.8950098 C20.9041586,10.009397 22.7854359,7.29772147 22.808063,7.2655163 C24.4533725,9.25901647 25.4505788,11.8032251 25.4780545,14.5777007 L25.4780545,14.5777007 Z M21.4956943,5.91772983 C21.4666024,5.96281707 19.7954334,8.4989744 15.3637647,10.15271 C13.3580386,6.47971009 11.1535178,3.56192147 10.97735,3.33004422 C11.8646535,3.11587983 12.7907462,2.99994121 13.7443146,2.99994121 C16.7149226,2.99994121 19.4269357,4.10457862 21.4956943,5.91772983 L21.4956943,5.91772983 Z M10.932096,3.33970578 C10.932096,3.34131604 10.9304797,3.34131604 10.9304797,3.34131604 C10.9304797,3.34131604 10.9159338,3.34453655 10.8949229,3.34936733 C10.9062365,3.34614681 10.9191662,3.34453655 10.932096,3.33970578 L10.932096,3.33970578 Z M8.73565621,4.11746069 C8.8908131,4.32679431 11.0630096,7.257465 13.0945951,10.856393 C7.4588443,12.3491028 2.56655357,12.2895232 2.25623979,12.2846924 C3.01909451,8.66161052 5.46119932,5.65847819 8.73565621,4.11746069 L8.73565621,4.11746069 Z M2.00572606,14.6936393 C2.00572606,14.5696494 2.01219093,14.4472697 2.01542337,14.3248901 C2.22229922,14.3297209 8.02290424,14.4601518 14.0659419,12.6582724 C14.4021152,13.3136477 14.7237425,13.9802947 15.0178941,14.6453316 C14.8627372,14.6888085 14.7091965,14.735506 14.5556558,14.7854241 C8.22169901,16.8256217 5.00865839,22.5033936 5.00865839,22.5033936 C5.00865839,22.5033936 5.01350704,22.5082244 5.01350704,22.5098347 C3.14354326,20.4374318 2.00572606,17.6983819 2.00572606,14.6936393 L2.00572606,14.6936393 Z M13.7443146,26.3889477 C10.903004,26.3889477 8.29766124,25.382536 6.2660757,23.7094773 C6.42123259,23.8334672 6.52951917,23.9139802 6.52951917,23.9139802 C6.52951917,23.9139802 8.77929409,19.025235 15.7403434,16.6082368 C15.7662028,16.5985753 15.7920623,16.590524 15.819538,16.5824727 C17.4713124,20.8593196 18.15174,24.4405347 18.3262915,25.463049 C16.918566,26.0588447 15.3686133,26.3889477 13.7443146,26.3889477 L13.7443146,26.3889477 Z M20.3029257,24.3938372 C20.1833256,23.688544 19.5578494,20.2554726 18.017594,16.0414258 C21.8076243,15.4375788 25.0901623,16.4729751 25.3325949,16.5518778 C24.8105566,19.809431 22.9373604,22.6209425 20.3029257,24.3938372 L20.3029257,24.3938372 Z" id="dribbble_icon"></path>
            </g>
        </g>
    </g>
</svg>