<?xml version="1.0" encoding="UTF-8" standalone="no"?>
<svg width="30px" height="29px" viewBox="0 0 30 29" version="1.1" xmlns="http://www.w3.org/2000/svg" xmlns:xlink="http://www.w3.org/1999/xlink">
    <!-- Generator: Sketch 42 (36781) - http://www.bohemiancoding.com/sketch -->
    <title>github_icon</title>
    <desc>Created with Sketch.</desc>
    <defs></defs>
    <g id="Page-1" stroke="none" stroke-width="1" fill="none" fill-rule="evenodd">
        <g id="Mobile-Portrait" transform="translate(-146.000000, -776.000000)" fill-rule="nonzero" fill="#FFFFFF">
            <g id="Group" transform="translate(68.000000, 776.000000)">
                <g id="github-logo" transform="translate(78.000000, 0.000000)">
                    <g id="Layer_1">
                        <path d="M14.7609598,0.2084005 C6.59372822,0.2084005 -3.55271368e-15,6.75199024 -3.55271368e-15,14.8571184 C-3.55271368e-15,21.3263492 4.19600887,26.8289133 10.1153785,28.7622467 C10.8646658,28.9109646 11.089452,28.4648108 11.089452,28.0930159 L11.089452,25.6391697 C6.96837187,26.5314774 6.14415584,23.7058364 6.14415584,23.7058364 C5.46979728,21.99558 4.49572379,21.5494261 4.49572379,21.5494261 C3.14700665,20.6571184 4.57065252,20.6571184 4.57065252,20.6571184 C6.06922711,20.7314774 6.81851441,22.1442979 6.81851441,22.1442979 C8.16723155,24.3750672 10.265236,23.7058364 11.089452,23.3340415 C11.2393095,22.3673749 11.6139531,21.7725031 11.9885968,21.4007082 C8.69173266,21.0289133 5.24501109,19.7648108 5.24501109,14.1878877 C5.24501109,12.6263492 5.84444092,11.2878877 6.74358568,10.246862 C6.59372822,9.87506717 6.06922711,8.38788768 6.89344314,6.38019537 C6.89344314,6.38019537 8.16723155,6.0084005 10.9395946,7.86737486 C12.1384542,7.56993896 13.4122426,7.34686204 14.6111023,7.34686204 C15.8848907,7.34686204 17.1586791,7.49557999 18.2826101,7.86737486 C21.1299018,6.0084005 22.3287615,6.38019537 22.3287615,6.38019537 C23.1529775,8.38788768 22.6284764,9.87506717 22.4786189,10.246862 C23.4526924,11.2878877 23.9771935,12.5519902 23.9771935,14.1878877 C23.9771935,19.8391697 20.530472,21.0289133 17.2336079,21.4007082 C17.758109,21.846862 18.2076813,22.7391697 18.2076813,24.0776313 L18.2076813,28.0930159 C18.2076813,28.4648108 18.5073963,28.9109646 19.2566836,28.7622467 C25.1011245,26.8289133 29.3720621,21.3263492 29.3720621,14.8571184 C29.5219195,6.75199024 22.9281913,0.2084005 14.7609598,0.2084005 Z" id="github_icon"></path>
                    </g>
                </g>
            </g>
        </g>
    </g>
</svg>