<?xml version="1.0" encoding="UTF-8" standalone="no"?>
<svg width="108px" height="19px" viewBox="0 0 108 19" version="1.1" xmlns="http://www.w3.org/2000/svg" xmlns:xlink="http://www.w3.org/1999/xlink">
    <!-- Generator: Sketch 42 (36781) - http://www.bohemiancoding.com/sketch -->
    <title>Mouse </title>
    <desc>Created with Sketch.</desc>
    <defs></defs>
    <g id="Page-1" stroke="none" stroke-width="1" fill="none" fill-rule="evenodd">
        <g id="Web" transform="translate(-746.000000, -873.000000)" fill="#FFFFFF">
            <g id="Mouse-" transform="translate(746.000000, 873.000000)">
                <path d="M56.6666667,18 C53.5422083,18 51,15.4037021 51,12.212766 L51,6.78723404 C51,3.59629787 53.5422083,1 56.6666667,1 C59.791125,1 62.3333333,3.59629787 62.3333333,6.78723404 L62.3333333,12.212766 C62.3333333,15.4037021 59.791125,18 56.6666667,18 L56.6666667,18 Z M61.625,6.78723404 C61.625,3.99489362 59.4008333,1.72340426 56.6666667,1.72340426 C53.9325,1.72340426 51.7083333,3.99489362 51.7083333,6.78723404 L51.7083333,12.212766 C51.7083333,15.0051064 53.9325,17.2765957 56.6666667,17.2765957 C59.4008333,17.2765957 61.625,15.0051064 61.625,12.212766 L61.625,6.78723404 L61.625,6.78723404 Z M56.6666667,6.66714894 C56.4711667,6.66714894 56.3125,6.50510638 56.3125,6.30544681 L56.3125,4.07482979 C56.3125,3.87517021 56.4711667,3.71312766 56.6666667,3.71312766 C56.8621667,3.71312766 57.0208333,3.87517021 57.0208333,4.07482979 L57.0208333,6.30544681 C57.0208333,6.50510638 56.8621667,6.66714894 56.6666667,6.66714894 L56.6666667,6.66714894 Z" id="Shape" stroke="#FFFFFF"></path>
                <text id="SCROLL" font-family="OpenSans-Bold, Open Sans" font-size="10" font-weight="bold">
                    <tspan x="0.630371094" y="13">SCROLL</tspan>
                </text>
                <text id="DOWN" font-family="OpenSans-Bold, Open Sans" font-size="10" font-weight="bold">
                    <tspan x="75.9204102" y="13">DOWN</tspan>
                </text>
            </g>
        </g>
    </g>
</svg>