<?xml version="1.0" encoding="UTF-8" standalone="no"?>
<svg width="26px" height="21px" viewBox="0 0 26 21" version="1.1" xmlns="http://www.w3.org/2000/svg" xmlns:xlink="http://www.w3.org/1999/xlink">
    <!-- Generator: Sketch 42 (36781) - http://www.bohemiancoding.com/sketch -->
    <title>twitter_icon</title>
    <desc>Created with Sketch.</desc>
    <defs></defs>
    <g id="Page-1" stroke="none" stroke-width="1" fill="none" fill-rule="evenodd">
        <g id="Mobile-Portrait" transform="translate(-227.000000, -780.000000)" fill="#FFFFFF">
            <g id="Group" transform="translate(68.000000, 776.000000)">
                <path d="M181.822566,7.3112371 C182.918899,6.65776317 183.76013,5.62158345 184.154932,4.38724381 C183.128448,4.99382493 181.994153,5.43249956 180.783934,5.66998893 C179.818189,4.64137256 178.437902,4 176.910324,4 C173.979681,4 171.604798,6.36733032 171.604798,9.28678559 C171.604798,9.70125748 171.648834,10.1051407 171.739942,10.4908718 C167.330312,10.2700218 163.420259,8.16740896 160.800902,4.96659685 C160.343844,5.7501605 160.082667,6.65776317 160.082667,7.62587269 C160.082667,9.4592301 161.019562,11.0777882 162.443884,12.0277457 C161.573802,12.0005176 160.755348,11.7600029 160.038632,11.3667084 L160.038632,11.4317533 C160.038632,13.9942181 161.866867,16.1316225 164.297933,16.6156772 C163.851503,16.7397162 163.383816,16.8017358 162.897906,16.8017358 C162.556251,16.8017358 162.222188,16.7699697 161.900273,16.7079502 C162.574472,18.8075377 164.534814,20.3383609 166.858069,20.379203 C165.040463,21.7980885 162.752133,22.642159 160.266402,22.642159 C159.838194,22.642159 159.414542,22.6194689 159,22.5695508 C161.349069,24.0686079 164.138494,24.9444444 167.135949,24.9444444 C176.899694,24.9444444 182.235589,16.887958 182.235589,9.90093007 C182.235589,9.67100406 182.232552,9.44259072 182.221923,9.21720272 C183.259036,8.47145586 184.161006,7.53965044 184.87013,6.47926798 C183.918051,6.89979055 182.894604,7.18417273 181.822566,7.3112371 Z" id="twitter_icon"></path>
            </g>
        </g>
    </g>
</svg>